#!OML:ASF E:\emotionWalksFemale\Project 1\Capture day 1\Session 1\Female1.ASF
:FULLY-SPECIFIED
:DEGREES
925
root 10.2502 15.2753 -36.4886 349.824 84.8579 351.202
lowerback 7.40493 1.71695 3.36617
upperback -3.83082 2.80302 1.33848
thorax -8.11248 1.24155 -0.876616
lowerneck -3.12013 -8.66167 -15.0701
upperneck 13.9678 -12.8413 17.3425
head 6.86 -5.89146 7.12826
rclavicle 6.55989e-015 7.95139e-016
rhumerus -37.2039 10.5705 -81.4318
rradius 38.6506
rwrist 13.7108
rhand -3.94922 -51.1416
rfingers 7.12502
rthumb 21.8027 -79.9335
lclavicle 6.55989e-015 7.95139e-016
lhumerus -56.5449 16.433 55.1051
lradius 35.9275
lwrist -12.5791
lhand -2.73225 -29.6124
lfingers 7.12502
lthumb 22.9709 -0.96105
rfemur 20.4007 6.74229 32.4387
rtibia 13.0564
rfoot -6.62591 -21.8992
rtoes -0.424764
lfemur -23.3549 -24.3359 -11.1157
ltibia 22.9643
lfoot -14.8275 21.6761
ltoes -23.6007
926
root 10.4043 15.2779 -36.5285 348.505 84.2297 349.949
lowerback 7.43013 1.73863 3.8405
upperback -3.91742 2.88369 1.26175
thorax -8.19313 1.25062 -1.23588
lowerneck -3.04228 -8.6505 -15.0143
upperneck 14.1761 -12.8851 17.5175
head 6.92761 -5.8941 7.18288
rclavicle -2.43511e-014 -9.14409e-015
rhumerus -37.7188 9.79582 -81.3597
rradius 38.6645
rwrist 14.0605
rhand -3.86454 -50.6138
rfingers 7.12502
rthumb 21.884 -79.3962
lclavicle -2.43511e-014 -9.14409e-015
lhumerus -56.5436 16.4527 54.5519
lradius 35.992
lwrist -12.679
lhand -3.1354 -29.5331
lfingers 7.12502
lthumb 22.584 -0.83411
rfemur 20.3266 7.38758 32.6708
rtibia 14.4309
rfoot -5.42068 -22.0276
rtoes -2.42513
lfemur -22.8517 -23.8529 -11.3444
ltibia 23.3941
lfoot -13.6828 21.7658
ltoes -26.8084
927
root 10.572 15.2885 -36.5648 350.724 84.0241 352.36
lowerback 7.33771 1.70834 3.74904
upperback -3.948 2.8197 1.15032
thorax -8.17298 1.2207 -1.29043
lowerneck -3.04363 -8.73639 -14.6844
upperneck 14.4782 -13.0203 17.2466
head 7.00551 -5.94756 7.02217
rclavicle 1.41137e-014 2.78299e-014
rhumerus -38.2789 9.39157 -81.244
rradius 38.7125
rwrist 14.1504
rhand -3.62738 -50.059
rfingers 7.12502
rthumb 22.1117 -78.8146
lclavicle 1.41137e-014 2.78299e-014
lhumerus -56.466 16.4242 54.2067
lradius 36.001
lwrist -12.663
lhand -3.35882 -29.4102
lfingers 7.12502
lthumb 22.3696 -0.685336
rfemur 19.6888 7.17113 32.128
rtibia 17.1303
rfoot -5.6863 -21.5405
rtoes -1.86622
lfemur -21.894 -23.6966 -12.1184
ltibia 23.2255
lfoot -12.6763 21.8469
ltoes -27.2961
928
root 10.7452 15.3008 -36.5976 352.833 83.8699 354.678
lowerback 7.18106 1.67607 3.61058
upperback -3.94746 2.74204 1.0208
thorax -8.08335 1.18779 -1.33301
lowerneck -3.04001 -8.80678 -14.5076
upperneck 14.7555 -13.145 17.1381
head 7.0947 -5.99488 6.94516
rclavicle -3.58806e-014 3.18055e-015
rhumerus -39.0087 8.96543 -81.1509
rradius 38.8769
rwrist 14.2097
rhand -3.33615 -49.7911
rfingers 7.12502
rthumb 22.3913 -78.5133
lclavicle -3.58806e-014 3.18055e-015
lhumerus -56.205 16.3096 53.9976
lradius 35.9158
lwrist -12.3503
lhand -3.66138 -29.3375
lfingers 7.12502
lthumb 22.0791 -0.578023
rfemur 19.2547 6.87642 31.4884
rtibia 19.229
rfoot -5.54098 -20.9258
rtoes -1.88998
lfemur -20.9968 -23.2562 -12.9489
ltibia 23.3646
lfoot -12.5373 21.1182
ltoes -23.4469
929
root 10.9235 15.3915 -36.6129 354.837 83.2791 356.784
lowerback 6.98429 1.72148 3.43683
upperback -3.97354 2.76787 0.922312
thorax -7.99749 1.20836 -1.33618
lowerneck -3.03125 -8.80108 -14.5783
upperneck 15.0269 -13.1709 17.1877
head 7.19253 -6.00026 6.97727
rclavicle -3.03644e-014 -1.31198e-014
rhumerus -39.5159 8.76036 -81.1532
rradius 39.05
rwrist 14.0895
rhand -2.6817 -50.1843
rfingers 7.12502
rthumb 23.0194 -78.8297
lclavicle -3.03644e-014 -1.31198e-014
lhumerus -56.1148 16.4898 53.558
lradius 35.8664
lwrist -12.2823
lhand -3.85463 -29.4848
lfingers 7.12502
lthumb 21.8935 -0.703491
rfemur 19.4908 10.8786 31.4487
rtibia 21.8236
rfoot -18.3781 -16.2912
rtoes 48.6377
lfemur -19.7617 -22.6658 -13.6396
ltibia 23.1758
lfoot -12.587 20.3573
ltoes -17.363
930
root 11.0821 15.3497 -36.6545 357.696 82.7938 359.701
lowerback 6.81047 1.73997 3.0021
upperback -4.03871 2.74313 0.92689
thorax -7.98584 1.22023 -1.08008
lowerneck -2.90272 -8.78189 -14.8114
upperneck 15.1412 -13.1726 17.3106
head 7.23125 -6.00961 7.06725
rclavicle 1.635e-014 8.74653e-015
rhumerus -39.9541 8.28074 -80.7756
rradius 38.92
rwrist 14.3264
rhand -2.43149 -50.3363
rfingers 7.12502
rthumb 23.2595 -78.9515
lclavicle 1.635e-014 8.74653e-015
lhumerus -56.0971 16.6826 53.3949
lradius 35.8253
lwrist -12.0932
lhand -3.88238 -29.5571
lfingers 7.12502
lthumb 21.8669 -0.772666
rfemur 17.5779 5.40966 29.5321
rtibia 24.3788
rfoot -2.44454 -18.4569
rtoes -12.6197
lfemur -18.9887 -22.0974 -14.4924
ltibia 23.093
lfoot -11.7915 19.9258
ltoes -16.1761
931
root 11.243 15.3627 -36.6931 361.234 82.5439 363.429
lowerback 6.80551 1.73684 2.59532
upperback -4.07141 2.69092 0.848301
thorax -8.03307 1.21294 -0.929039
lowerneck -2.80455 -8.84536 -14.8287
upperneck 15.2898 -13.2633 17.1579
head 7.26761 -6.06457 7.01217
rclavicle 8.44835e-015 -1.11319e-014
rhumerus -40.5889 8.73712 -80.7406
rradius 38.9827
rwrist 13.4494
rhand -3.05338 -50.7005
rfingers 7.12502
rthumb 22.6627 -79.3899
lclavicle 8.44835e-015 -1.11319e-014
lhumerus -55.8164 16.6268 53.4955
lradius 35.7066
lwrist -11.7501
lhand -4.18257 -29.5519
lfingers 7.12502
lthumb 21.5786 -0.73412
rfemur 16.4736 5.10412 28.3768
rtibia 27.2933
rfoot -1.90438 -17.5675
rtoes -9.33129
lfemur -17.9071 -21.6306 -15.5699
ltibia 22.7435
lfoot -11.0033 19.3648
ltoes -18.1849
932
root 11.4025 15.3789 -36.7293 364.566 82.33 366.909
lowerback 6.77038 1.72303 2.30325
upperback -4.09705 2.62672 0.667198
thorax -8.04527 1.19093 -0.946929
lowerneck -2.85753 -9.00189 -14.7671
upperneck 15.5515 -13.503 17.1037
head 7.3958 -6.16773 6.95601
rclavicle -1.81888e-014 6.75868e-015
rhumerus -41.199 8.16523 -80.3829
rradius 39.0477
rwrist 13.5877
rhand -3.21345 -50.7588
rfingers 7.12502
rthumb 22.5091 -79.4669
lclavicle -1.81888e-014 6.75868e-015
lhumerus -55.4268 16.5289 53.5222
lradius 35.6063
lwrist -11.6161
lhand -4.77249 -29.6045
lfingers 7.12502
lthumb 21.012 -0.722741
rfemur 15.5258 4.64819 27.1995
rtibia 29.8321
rfoot -0.812845 -16.5728
rtoes -7.31845
lfemur -17.1065 -20.9599 -16.6249
ltibia 22.8233
lfoot -10.4866 18.8945
ltoes -21.9514
933
root 11.5573 15.3955 -36.7563 367.078 81.9897 369.647
lowerback 6.87016 1.71194 1.85912
upperback -4.10988 2.56077 0.576189
thorax -8.13307 1.17818 -0.789378
lowerneck -2.88672 -9.0938 -14.596
upperneck 15.7476 -13.6308 16.8959
head 7.45908 -6.22506 6.84081
rclavicle -1.29707e-014 6.36111e-015
rhumerus -41.8453 7.51411 -79.9254
rradius 39.1017
rwrist 13.9419
rhand -3.03005 -50.6635
rfingers 7.12502
rthumb 22.6851 -79.3502
lclavicle -1.29707e-014 6.36111e-015
lhumerus -55.1482 16.5318 53.5982
lradius 35.5904
lwrist -11.4929
lhand -5.11206 -29.4912
lfingers 7.12502
lthumb 20.6857 -0.573612
rfemur 14.3016 4.37144 26.2177
rtibia 33.0213
rfoot 0.792005 -15.8587
rtoes -7.80551
lfemur -15.8887 -20.1228 -17.6254
ltibia 22.3048
lfoot -10.0486 18.8296
ltoes -24.9489
934
root 11.7059 15.4097 -36.785 369.668 81.7276 372.488
lowerback 7.06291 1.64887 1.51315
upperback -4.12181 2.43094 0.421604
thorax -8.26825 1.12626 -0.747777
lowerneck -2.89039 -9.15434 -14.3463
upperneck 15.9015 -13.7064 16.6159
head 7.48329 -6.26052 6.69418
rclavicle 4.27387e-015 4.37326e-015
rhumerus -42.3833 7.05651 -79.6892
rradius 39.0489
rwrist 13.9724
rhand -3.64098 -50.7066
rfingers 7.12502
rthumb 22.0987 -79.4638
lclavicle 4.27387e-015 4.37326e-015
lhumerus -54.8385 16.5484 53.6595
lradius 35.6171
lwrist -11.3298
lhand -5.21165 -29.2287
lfingers 7.12502
lthumb 20.59 -0.30071
rfemur 12.9482 4.10921 25.2578
rtibia 36.3264
rfoot 2.65583 -15.53
rtoes -7.40521
lfemur -14.6614 -19.5068 -18.6206
ltibia 21.7105
lfoot -10.1168 18.546
ltoes -25.3242
935
root 11.8526 15.4301 -36.8084 372.162 81.2931 374.904
lowerback 6.95 1.67914 1.13842
upperback -4.17964 2.41533 0.217935
thorax -8.27071 1.13317 -0.747733
lowerneck -2.86493 -9.26285 -14.3445
upperneck 15.8869 -13.902 16.8574
head 7.52615 -6.33736 6.75497
rclavicle -1.48095e-014 -2.38542e-015
rhumerus -42.7556 6.42087 -79.4962
rradius 38.8755
rwrist 14.0334
rhand -4.53685 -50.6616
rfingers 7.12502
rthumb 21.2384 -79.518
lclavicle -1.48095e-014 -2.38542e-015
lhumerus -54.3419 16.5861 53.6901
lradius 35.6632
lwrist -11.3161
lhand -5.28098 -29.0537
lfingers 7.12502
lthumb 20.5234 -0.118546
rfemur 11.0812 4.06328 24.2921
rtibia 39.7323
rfoot 4.36956 -14.9225
rtoes -6.18646
lfemur -13.7797 -18.671 -19.4583
ltibia 21.0408
lfoot -10.1659 18.2317
ltoes -26.8676
936
root 11.9968 15.4452 -36.8236 374.67 80.8858 377.444
lowerback 6.82786 1.63707 0.528128
upperback -4.11408 2.27974 0.0641684
thorax -8.14769 1.09694 -0.543731
lowerneck -2.79612 -9.21157 -14.7201
upperneck 15.7668 -13.8772 17.3298
head 7.53456 -6.32438 6.98805
rclavicle -1.27222e-014 -1.19271e-015
rhumerus -42.9139 6.01578 -79.3259
rradius 38.6169
rwrist 14.268
rhand -4.37275 -50.8821
rfingers 7.12502
rthumb 21.396 -79.7208
lclavicle -1.27222e-014 -1.19271e-015
lhumerus -53.8441 16.9101 53.5748
lradius 35.735
lwrist -11.4483
lhand -5.24951 -29.0682
lfingers 7.12502
lthumb 20.5537 -0.136245
rfemur 9.25342 3.83875 23.2755
rtibia 43.2337
rfoot 5.91871 -13.7264
rtoes -5.70068
lfemur -12.727 -17.6966 -20.3667
ltibia 20.2659
lfoot -10.0131 18.0655
ltoes -29.2585
937
root 12.1375 15.4564 -36.8478 377.521 80.6707 380.48
lowerback 6.77145 1.3782 0.11998
upperback -3.92913 1.87338 -0.103527
thorax -7.92656 0.915575 -0.430742
lowerneck -2.89097 -9.10197 -15.0356
upperneck 15.6614 -13.7515 17.7413
head 7.54971 -6.25714 7.19685
rclavicle 2.05245e-014 4.37326e-015
rhumerus -42.9211 6.15323 -79.3788
rradius 38.5205
rwrist 14.5043
rhand -3.50596 -51.5966
rfingers 7.12502
rthumb 22.2283 -80.3384
lclavicle 2.05245e-014 4.37326e-015
lhumerus -53.4517 17.3208 53.4719
lradius 35.8688
lwrist -11.3545
lhand -5.16168 -29.127
lfingers 7.12502
lthumb 20.6381 -0.204181
rfemur 7.51659 3.37068 22.1785
rtibia 46.7596
rfoot 7.33352 -12.6496
rtoes -3.44671
lfemur -11.5199 -17.194 -21.3833
ltibia 19.3688
lfoot -9.97049 17.8787
ltoes -29.1263
938
root 12.2764 15.477 -36.8715 379.922 80.1772 382.616
lowerback 6.38456 1.2862 -0.225209
upperback -3.89831 1.70505 -0.268175
thorax -7.67408 0.848401 -0.376908
lowerneck -2.92503 -9.0879 -15.2902
upperneck 15.4831 -13.7344 17.9825
head 7.53274 -6.25475 7.32196
rclavicle -9.49197e-015 -6.75868e-015
rhumerus -43.0782 6.17276 -79.3487
rradius 38.6165
rwrist 14.3073
rhand -3.37551 -51.4746
rfingers 7.12502
rthumb 22.3535 -80.2014
lclavicle -9.49197e-015 -6.75868e-015
lhumerus -52.9269 17.3845 53.7452
lradius 36.1251
lwrist -10.9817
lhand -4.88169 -29.0783
lfingers 7.12502
lthumb 20.9071 -0.184996
rfemur 5.17718 3.17188 21.1091
rtibia 50.2421
rfoot 8.82953 -11.7379
rtoes -0.622799
lfemur -10.7598 -16.9037 -22.1878
ltibia 18.4029
lfoot -10.1272 17.8202
ltoes -27.3493
939
root 12.4082 15.4958 -36.8874 381.907 79.6863 384.7
lowerback 6.51419 1.30302 -0.756644
upperback -3.83958 1.66229 -0.43451
thorax -7.69749 0.849703 -0.250491
lowerneck -2.83493 -9.14174 -15.2965
upperneck 15.2622 -13.803 18.016
head 7.46118 -6.29818 7.32428
rclavicle 6.01324e-015 -7.95139e-015
rhumerus -43.3477 5.79767 -79.0764
rradius 38.5361
rwrist 13.8996
rhand -4.00175 -50.6004
rfingers 7.12502
rthumb 21.7523 -79.3981
lclavicle 6.01324e-015 -7.95139e-015
lhumerus -52.2536 17.0775 54.2897
lradius 36.4169
lwrist -10.5263
lhand -4.89786 -28.9833
lfingers 7.12502
lthumb 20.8915 -0.0882537
rfemur 3.20778 2.67857 20.0072
rtibia 53.5698
rfoot 10.3124 -10.6054
rtoes 0.360934
lfemur -9.54854 -16.8172 -23.0536
ltibia 17.4086
lfoot -10.7209 17.66
ltoes -23.1056
